<svg width="86" height="86" viewBox="0 0 86 86" fill="none" xmlns="http://www.w3.org/2000/svg">
<g clip-path="url(#clip0_1_11)">
<path d="M43 86C19.2506 86 0 66.7494 0 43C0 19.2506 19.2506 0 43 0C66.7494 0 86 19.2506 86 43C86 66.7494 66.7494 86 43 86ZM62.1726 46.9426C60.6918 40.42 56.0881 33.2283 56.0881 33.2283C61.3933 47.7058 59.3508 58.6251 57.9452 64.8198C57.9452 64.8198 56.0908 71.7482 60.0818 65.9754C65.059 58.7514 62.1726 46.9426 62.1726 46.9426ZM49.0684 21.2581C51.8284 31.089 53.0781 39.4337 53.4678 46.3916C54.1531 58.2489 52.3444 66.0507 51.2211 70.1706C50.8609 71.5117 52.3606 72.5088 53.234 71.4956L53.2501 71.4794C55.4324 68.9827 56.4644 63.1348 56.9481 58.0016L57.0879 56.3166C57.5394 50.1353 57.276 43.8976 55.8247 37.9206C53.1561 26.8911 49.0684 21.2581 49.0684 21.2581ZM44.1234 38.5764C43.4515 22.4299 42.2341 8.09206 42.2341 8.09206C42.2341 8.09206 41.0032 21.7123 40.3313 37.4987C40.2238 40.0599 40.1271 42.6641 40.0491 45.2844C39.9416 49.0926 39.8932 52.9169 39.8932 56.6122C39.9094 63.1804 40.162 69.3429 40.7533 74.2583C40.9871 76.2067 43.5133 76.2067 43.7471 74.2583C44.1529 70.9043 44.3868 66.7844 44.4808 62.2586C44.5681 57.3657 44.5475 52.4715 44.419 47.5795C44.3384 44.5829 44.247 41.5568 44.1234 38.5764ZM25.2598 58.0339C24.8923 54.9899 24.8086 51.9183 25.0099 48.8587C25.1657 46.4561 25.5098 43.8815 26.1037 41.1349C26.6493 38.6221 27.3964 35.9856 28.4122 33.2094C28.4122 33.2094 25.1658 38.2808 23.263 43.7552C22.8868 44.8033 22.5777 45.8783 22.3412 46.9237C22.3412 46.9237 21.7338 49.6704 21.6424 53.3361C21.5779 55.8785 21.7795 58.8885 22.5911 61.7292C23.0013 63.2162 23.6164 64.639 24.4186 65.9566C24.4186 65.9566 28.4122 71.9014 26.5552 64.801C25.9774 62.5748 25.5447 60.3161 25.2598 58.0339ZM30.9546 54.8492C30.8244 51.6346 30.8764 48.4152 31.1105 45.2064C31.2727 42.8374 31.5228 40.4753 31.8603 38.1249C32.5591 33.0697 33.7013 27.4689 35.4347 21.2581C35.4347 21.2581 31.3282 26.8911 28.6622 37.9206C28.5198 38.5119 28.3934 39.1058 28.2698 39.6836C27.7861 42.0863 27.4743 44.5211 27.3184 46.9856C27.1303 50.0762 27.1787 53.1937 27.3991 56.3004L27.5388 58.0016C28.0226 63.1348 29.0357 68.9827 31.2341 71.4794L31.2502 71.4956C32.1237 72.4953 33.6367 71.4956 33.2659 70.1706C32.4516 67.1284 31.2502 62.0732 30.9546 54.8492ZM37.7728 55.4566C37.6847 51.8793 37.6686 48.3006 37.7244 44.7227C37.7567 42.3684 37.8185 39.8852 37.9287 37.281C38.1947 30.5569 39.4579 20.8362 40.3313 12.599C40.3313 12.599 36.0259 21.5081 34.0587 37.5793C33.7953 39.7777 33.5454 42.1481 33.3573 44.7092L33.2175 46.612C33.2175 46.612 32.9837 50.0117 33.0751 54.5993C33.2014 60.4956 33.8544 68.3592 36.2893 73.5085C36.3699 73.6644 36.4613 73.8041 36.5849 73.9116L36.6011 73.9304C37.5229 74.8039 38.9419 73.9761 38.8183 72.6189C38.2457 66.914 37.8961 61.1888 37.7701 55.4566H37.7728ZM46.6953 55.4566C46.4938 63.8201 45.9643 69.6708 45.6526 72.6189C45.5262 73.9761 46.9453 74.8039 47.8671 73.9304L47.8832 73.9143C48.0072 73.7996 48.1076 73.6617 48.1788 73.5085C50.6137 68.3592 51.2694 60.4956 51.3931 54.5993C51.4871 50.0117 51.2533 46.612 51.2533 46.612L51.1109 44.7092C50.9342 42.3274 50.7012 39.9501 50.4121 37.5793C48.4449 21.5081 44.1368 12.599 44.1368 12.599C45.0129 20.8362 46.2761 30.5569 46.5394 37.281C46.6496 39.8879 46.7114 42.3684 46.7437 44.7254C46.7995 48.3024 46.7834 51.8802 46.6953 55.4566Z" fill="#B121AC"/>
</g>
<defs>
<clipPath id="clip0_1_11">
<rect width="86" height="86" fill="white"/>
</clipPath>
</defs>
</svg>
