<svg width="21" height="20" viewBox="0 0 21 20" fill="none" xmlns="http://www.w3.org/2000/svg">
<g clip-path="url(#clip0_1_47)">
<path d="M10.5 20C2.03159 20 0 18.0652 0 10C0 1.93484 2.03159 0 10.5 0C18.9684 0 21 1.93484 21 10C21 18.0652 18.9684 20 10.5 20ZM7.52752 4.94906L4.23421 12.0774C4.0845 12.4237 3.9562 12.8716 3.9562 13.2587C3.9562 15.0305 5.26066 16.273 7.12113 16.273C7.73087 16.273 8.23717 16.1204 8.75191 15.9653L8.75232 15.9651C9.28463 15.8047 9.82603 15.6416 10.5 15.6416C11.1818 15.6416 11.7103 15.8033 12.2323 15.963L12.2325 15.963C12.7419 16.1189 13.2452 16.273 13.8788 16.273C15.7393 16.273 17.0438 15.0305 17.0438 13.2587C17.0438 12.8716 16.9154 12.4237 16.7658 12.0774L13.4726 4.94906C12.9164 3.7475 11.8473 3.0957 10.5 3.0957C9.15272 3.0957 8.08352 3.74742 7.52752 4.94906ZM7.24943 13.1976L10.5 6.19148L13.7078 13.1976C12.7882 12.7699 11.6334 12.5663 10.5 12.5663C9.32384 12.5663 8.21174 12.7699 7.24943 13.1976Z" fill="#5A46FF"/>
</g>
<defs>
<clipPath id="clip0_1_47">
<rect width="21" height="20" fill="white"/>
</clipPath>
</defs>
</svg>
