<svg width="20" height="17" viewBox="0 0 20 17" fill="none" xmlns="http://www.w3.org/2000/svg">
<g clip-path="url(#clip0_1_27)">
<path d="M8.92648 0.213565L1.47344 3.33484C1.05898 3.5084 1.06328 4.10419 1.48039 4.27158L8.96453 7.27537C9.62211 7.53935 10.3545 7.53935 11.012 7.27537L18.4963 4.2715C18.9133 4.10427 18.9177 3.50848 18.503 3.33484L11.0502 0.213486C10.3702 -0.0712434 9.60642 -0.0711644 8.92648 0.213565Z" fill="#FFBF00"/>
<path d="M10.6523 8.91566V16.4195C10.6523 16.7765 11.0078 17.0209 11.3356 16.8894L19.6753 13.6131C19.7683 13.5758 19.8481 13.5111 19.9043 13.4273C19.9605 13.3435 19.9906 13.2446 19.9905 13.1434V5.63941C19.9905 5.28249 19.635 5.03816 19.3072 5.16965L10.9675 8.44583C10.8745 8.48315 10.7947 8.5479 10.7385 8.63168C10.6823 8.71546 10.6522 8.8144 10.6523 8.91566" fill="#26B5F8"/>
<path d="M8.70492 9.30288L6.22992 10.5123L5.97859 10.6353L0.753906 13.1689C0.422734 13.3306 0 13.0864 0 12.714V5.67089C0 5.53615 0.0682812 5.41984 0.159844 5.33223C0.197379 5.29448 0.239922 5.2622 0.28625 5.23632C0.411094 5.16049 0.589219 5.14025 0.740625 5.2009L8.66328 8.37792C9.06602 8.53962 9.09766 9.11082 8.70492 9.30288Z" fill="#ED3049"/>
<path d="M8.70492 9.30288L6.22992 10.5123L0.159767 5.33231C0.197302 5.29456 0.239846 5.26228 0.286173 5.2364C0.411017 5.16057 0.589142 5.14033 0.740548 5.20097L8.66321 8.378C9.06594 8.5397 9.09766 9.11082 8.70492 9.30288Z" fill="black" fill-opacity="0.25"/>
</g>
<defs>
<clipPath id="clip0_1_27">
<rect width="20" height="17" fill="white"/>
</clipPath>
</defs>
</svg>
