<svg width="20" height="12" viewBox="0 0 20 12" fill="none" xmlns="http://www.w3.org/2000/svg">
<g clip-path="url(#clip0_1_44)">
<path d="M19.9441 11.4776C19.9376 11.4357 19.9313 11.3942 19.9245 11.3528C19.7515 10.2841 19.4142 9.25025 18.925 8.28975C18.4461 7.34861 17.8282 6.48887 17.093 5.74095C16.5561 5.19418 15.9609 4.71101 15.3185 4.30055C15.3223 4.29415 15.3255 4.28711 15.3295 4.28055C15.5312 3.92367 15.7335 3.56719 15.9353 3.21015L16.5272 2.16471C16.6692 1.91463 16.8109 1.66391 16.952 1.41383C16.9855 1.35436 17.0122 1.29311 17.032 1.23007C17.0994 1.01531 17.0895 0.782888 17.0038 0.575028C16.9872 0.534494 16.9678 0.495241 16.9458 0.457268C16.8676 0.323393 16.7581 0.211635 16.627 0.132148C16.5078 0.0597743 16.3741 0.0157577 16.236 0.00334759C16.1783 -0.00159831 16.1203 -0.00106268 16.0627 0.00494759C16.0152 0.00996092 15.968 0.0187609 15.921 0.0313476C15.8043 0.0630015 15.6949 0.117929 15.599 0.192981C15.5031 0.268033 15.4226 0.361733 15.3621 0.468708C15.2204 0.718868 15.0787 0.969508 14.9373 1.21959L14.3454 2.26511C14.1436 2.62207 13.9412 2.97855 13.7395 3.33551C13.7175 3.37447 13.6952 3.41335 13.6733 3.45287C13.6428 3.44023 13.6122 3.42791 13.5817 3.41591C12.4692 2.98151 11.2623 2.74391 10.0008 2.74391C9.96625 2.74391 9.93211 2.74391 9.89734 2.74439C8.7757 2.75583 7.69797 2.95559 6.6925 3.31399C6.57656 3.35543 6.46143 3.39923 6.34719 3.44535C6.32672 3.40895 6.30562 3.37247 6.28547 3.33599C6.08367 2.97903 5.88133 2.62255 5.67961 2.26559L5.08773 1.21999C4.94576 0.969895 4.80411 0.719602 4.66281 0.469108C4.57546 0.3145 4.44685 0.188607 4.29209 0.106196C4.13733 0.0237848 3.96283 -0.0117264 3.78906 0.00382759C3.65072 0.0158182 3.51687 0.0599205 3.39766 0.132788C3.26671 0.212284 3.15722 0.324012 3.07914 0.457828C3.05719 0.495748 3.03758 0.535188 3.02117 0.575668C2.93554 0.783512 2.92542 1.01589 2.99266 1.23071C3.01289 1.29359 3.03906 1.35503 3.07258 1.41439C3.21455 1.66448 3.35619 1.91478 3.4975 2.16527C3.69505 2.5138 3.89245 2.86231 4.08969 3.21079C4.29141 3.56775 4.49344 3.92423 4.69516 4.28119C4.69672 4.28423 4.69875 4.28719 4.70023 4.29015C4.29427 4.54838 3.90675 4.83585 3.54063 5.15039C2.88565 5.71329 2.3029 6.35882 1.80625 7.07159C1.53557 7.46008 1.29175 7.86747 1.07656 8.29079C0.705084 9.02026 0.420671 9.79285 0.229453 10.5919C0.169457 10.8439 0.118615 11.098 0.0770312 11.3538C0.0702344 11.3953 0.0639844 11.4372 0.0577344 11.4786C0.0351557 11.6284 0.0159059 11.7787 0 11.9294H20C19.984 11.7781 19.9649 11.6278 19.9427 11.4785L19.9441 11.4776Z" fill="#34A853"/>
<path d="M15.2023 9.09696C15.6025 8.82416 15.6607 8.19296 15.3321 7.68736C15.0037 7.18152 14.4131 6.9928 14.0131 7.26552C13.613 7.53832 13.5547 8.16952 13.8833 8.6752C14.2116 9.18096 14.8024 9.36976 15.2023 9.09696ZM6.13421 8.67696C6.46281 8.17128 6.40452 7.54016 6.00437 7.26736C5.60413 6.99456 5.01374 7.18336 4.68515 7.68896C4.35679 8.1948 4.41499 8.82592 4.81499 9.09872C5.21515 9.37152 5.80585 9.18272 6.13421 8.67696Z" fill="#202124"/>
</g>
<defs>
<clipPath id="clip0_1_44">
<rect width="20" height="12" fill="white"/>
</clipPath>
</defs>
</svg>
