<svg width="21" height="20" viewBox="0 0 21 20" fill="none" xmlns="http://www.w3.org/2000/svg">
<g clip-path="url(#clip0_1_32)">
<path d="M7.29725 13.0908L9.94686 10.5573L5.96802 10.5575H5.9585C3.75366 10.5575 1.96629 12.2665 1.96629 14.3743C1.96629 16.4826 3.7535 18.1914 5.95834 18.1914C6.12576 18.1914 6.29056 18.1804 6.45257 18.1612C5.58124 16.52 5.86211 14.4628 7.29725 13.0908Z" fill="#87C040"/>
<path d="M10.5276 14.3697V10.7871L7.7143 13.4773L7.70749 13.4835C6.14841 14.9742 6.14841 17.391 7.70749 18.8817C9.26658 20.3723 11.7943 20.3723 13.3533 18.8817C13.4717 18.7685 13.5779 18.6483 13.6784 18.5255C11.8493 17.9534 10.5277 16.3097 10.5276 14.3697Z" fill="#87C040"/>
<path d="M13.7578 13.09L11.1082 10.5567V14.37C11.1082 16.4783 12.8956 18.187 15.1004 18.187C17.3052 18.187 19.0926 16.4782 19.0926 14.3701C19.0926 14.21 19.0811 14.0525 19.061 13.8976C17.3445 14.7309 15.1929 14.4622 13.7577 13.09" fill="#87C040"/>
<path d="M19.8143 7.29984C19.696 7.18674 19.5705 7.08509 19.442 6.98901C18.8437 8.73772 17.1244 10.0014 15.0955 10.0014H11.3486L14.1685 12.6977C15.7276 14.1884 18.2555 14.1884 19.8143 12.6977C21.3734 11.2071 21.3734 8.79035 19.8143 7.29984Z" fill="#87C040"/>
<path d="M15.096 1.81239C14.9285 1.81239 14.7637 1.8233 14.6017 1.84251C15.4731 3.48384 15.1922 5.54086 13.757 6.91294L11.1077 9.44628H15.096C17.3006 9.44628 19.088 7.73726 19.088 5.62926C19.0882 3.52118 17.3008 1.81239 15.096 1.81239Z" fill="#ED9A2D"/>
<path d="M13.3468 1.12204C11.7877 -0.368466 9.26002 -0.368466 7.70102 1.1222C7.58289 1.2353 7.47658 1.3553 7.37617 1.47828C9.20498 2.05036 10.5267 3.6942 10.5267 5.63396V9.21655L13.34 6.52659L13.3468 6.52024C14.9059 5.02957 14.9059 2.61279 13.3468 1.12204Z" fill="#5698C6"/>
<path d="M7.30045 6.91561L7.41399 7.02887L9.94342 9.44722H9.94613V5.63373C9.94613 3.52565 8.15867 1.81671 5.95391 1.81671C3.74916 1.81671 1.9617 3.52542 1.96186 5.6335C1.96186 5.79326 1.97326 5.95036 1.99311 6.10487C3.71085 5.27232 5.86515 5.5433 7.30045 6.91561Z" fill="#5698C6"/>
<path d="M1.62406 12.9816C1.65507 12.8931 1.68902 12.8056 1.72586 12.7192C1.73045 12.7083 1.73455 12.6973 1.73931 12.6867C1.77992 12.5946 1.82386 12.5039 1.87105 12.4147C1.88128 12.3952 1.89178 12.3757 1.90255 12.3561C1.9504 12.2678 2.00137 12.181 2.05538 12.096C2.06112 12.0869 2.06743 12.0783 2.07318 12.0695C2.12458 11.9906 2.17864 11.9133 2.23527 11.8378C2.2467 11.8221 2.25832 11.8065 2.27013 11.791C2.33073 11.7122 2.39401 11.6353 2.45987 11.5605C2.47327 11.5453 2.48686 11.5304 2.50064 11.5156C2.56478 11.4444 2.63128 11.3752 2.70006 11.3081C2.70621 11.3022 2.71179 11.296 2.71794 11.2902C2.7914 11.2201 2.86732 11.1523 2.94558 11.0871C2.96253 11.0728 2.97959 11.0587 2.99677 11.0447C3.07523 10.9807 3.15586 10.9191 3.23851 10.8601C3.24942 10.8524 3.26083 10.8452 3.27165 10.8378C3.34914 10.7839 3.42836 10.7324 3.50922 10.6833C3.52521 10.6736 3.54096 10.6635 3.55712 10.6539C3.64471 10.6022 3.7341 10.5534 3.82512 10.5075C3.84437 10.4979 3.86367 10.4885 3.88303 10.4792C3.97394 10.4344 4.06642 10.3926 4.1603 10.3538C4.16497 10.3521 4.16932 10.3499 4.174 10.348C4.27192 10.3087 4.37124 10.2728 4.47177 10.2401C4.49354 10.2328 4.51533 10.2258 4.53715 10.2189C4.6369 10.1878 4.73813 10.1593 4.84075 10.1344C4.85642 10.1308 4.87258 10.1275 4.88824 10.1242C4.9834 10.1022 5.07962 10.0833 5.17691 10.0672C5.19512 10.0643 5.21309 10.0607 5.2313 10.0581C5.33757 10.042 5.44442 10.0295 5.55163 10.0206C5.57493 10.0187 5.59839 10.0172 5.62168 10.0154C5.73387 10.0072 5.84632 10.0028 5.95883 10.0024L9.70586 10.0022L6.88579 7.30588C5.3267 5.81537 2.79883 5.81522 1.23999 7.30588C-0.3191 8.79655 -0.3191 11.2133 1.23999 12.7039C1.35658 12.8155 1.48024 12.9201 1.61027 13.0172C1.61454 13.0052 1.61979 12.9936 1.62406 12.9816Z" fill="#5698C6"/>
<path d="M6.89514 7.30589L9.12803 9.44079H6.12675L5.95654 9.44416C4.12888 9.44416 2.58809 8.26989 2.11444 6.66738C3.63489 5.85216 5.59494 6.06298 6.88841 7.29953L6.89514 7.30589ZM9.94465 5.63287V8.652L7.82242 6.62298L7.69962 6.51036C6.40714 5.27475 6.18614 3.40251 7.0364 1.94926C8.71451 2.40087 9.94457 3.87506 9.94457 5.62377L9.94465 5.63287ZM13.359 6.51734L11.1261 8.65232V5.78291L11.1226 5.62016C11.1226 3.87271 12.3509 2.39938 14.0269 1.94667C14.8796 3.4004 14.6591 5.27436 13.3658 6.51098L13.359 6.51734Z" fill="#446BA6"/>
<path d="M15.0934 9.43827H11.9357L14.0579 7.40925L14.1757 7.29192C15.468 6.05616 17.4261 5.84486 18.9461 6.65772C18.4738 8.2622 16.9318 9.43827 15.1029 9.43827H15.0934Z" fill="#FFF101"/>
<path d="M14.1609 12.6827L11.928 10.5478H14.9292L15.0994 10.5444C16.9271 10.5445 18.4678 11.7188 18.9415 13.3213C17.4208 14.1364 15.461 13.9257 14.1675 12.6889L14.1609 12.6827ZM11.1174 14.3525V11.3333L13.2395 13.3623L13.3625 13.475C14.6548 14.7107 14.8758 16.5826 14.0255 18.036C12.3474 17.5844 11.1174 16.1103 11.1174 14.3614V14.3525ZM7.72398 13.486L9.95687 11.351V14.2205L9.9604 14.3831C9.9604 16.1306 8.73214 17.6039 7.05616 18.0569C6.20345 16.6027 6.42403 14.7289 7.71733 13.4923L7.72398 13.486ZM5.97228 10.5635H9.12999L7.00784 12.5925L6.89005 12.71C5.59756 13.9457 3.63956 14.157 2.11944 13.3441C2.59194 11.7394 4.13363 10.5635 5.96277 10.5635H5.97228Z" fill="#45AB47"/>
</g>
<defs>
<clipPath id="clip0_1_32">
<rect width="21" height="20" fill="white"/>
</clipPath>
</defs>
</svg>
